ply
format ascii 1.0
Created by Blender3D 245 - www.blender.org, source file: floor.blend
element vertex 16
property float x
property float y
property float z
property float nx
property float ny
property float nz
property float s
property float t
element face 6
property list uchar uint vertex_indices
end_header
50.000000 -0.016663 -50.000000 0.000167 1.000000 0.000167 0.500770 1.000770 
-50.000000 -0.000000 -50.000000 0.000167 1.000000 0.000167 0.003230 1.000770 
-50.000000 -0.016670 50.000000 0.000167 1.000000 0.000167 0.003230 0.503230 
50.000000 -0.016663 -50.000000 0.000000 1.000000 0.000000 0.500770 1.000770 
-50.000000 -0.016670 50.000000 0.000000 1.000000 0.000000 0.003230 0.503230 
50.000000 -0.016670 50.000000 0.000000 1.000000 0.000000 0.500770 0.503230 
50.000000 -0.000000 -50.000000 0.000000 1.000000 -0.000000 0.500770 1.000770 
-50.000000 0.000000 50.000000 0.000000 1.000000 -0.000000 0.003230 0.503230 
50.000000 0.000000 50.000000 0.000000 1.000000 -0.000000 0.500770 0.503230 
50.000000 -0.000000 -50.000000 -0.000167 1.000000 -0.000167 0.500770 1.000770 
-50.000000 -0.016663 -50.000000 -0.000167 1.000000 -0.000167 0.003230 1.000770 
-50.000000 0.000000 50.000000 -0.000167 1.000000 -0.000167 0.003230 0.503230 
5000.000000 -0.999623 -5000.000000 -0.000000 1.000000 0.000000 0.998515 0.003485 
-5000.000000 -0.999623 -5000.000000 -0.000000 1.000000 0.000000 0.505485 0.003485 
-5000.000000 -1.000378 5000.000000 -0.000000 1.000000 0.000000 0.505485 0.496515 
5000.000000 -1.000378 5000.000000 0.000000 1.000000 0.000000 0.998515 0.496515 
3 0 1 2 
3 3 4 5 
3 6 7 8 
3 9 10 11 
3 12 13 14 
3 12 14 15 
