ply
format ascii 1.0
Created by Blender3D 245 - www.blender.org, source file: i4copter-battery.blend
element vertex 142
property float x
property float y
property float z
property float nx
property float ny
property float nz
property float s
property float t
element face 96
property list uchar uint vertex_indices
end_header
6.952495 -0.778513 -2.125000 0.553026 -0.365917 -0.748497 0.904805 0.314690 
6.713404 -1.071984 -1.937316 0.288583 -0.811548 -0.508011 0.885307 0.337983 
3.550000 -1.071984 -1.937316 0.000000 -0.818506 -0.574450 0.688557 0.337308 
3.550000 -0.778513 -2.125000 0.000000 -0.280648 -0.959777 0.688583 0.309321 
6.952494 0.000000 -2.125000 0.620136 0.000000 -0.784478 0.880937 0.664023 
6.952495 -0.778513 -2.125000 0.553026 -0.365917 -0.748497 0.880937 0.711179 
3.550000 -0.778513 -2.125000 0.000000 -0.280648 -0.959777 0.674843 0.711179 
3.550000 0.000000 -2.125000 0.000000 0.000000 -1.000000 0.674843 0.664024 
0.000000 -1.071984 -1.937316 0.000000 -0.818506 -0.574450 0.466476 0.338022 
0.000000 -0.778513 -2.125000 0.000000 -0.280648 -0.959777 0.465995 0.308865 
0.000000 -0.778513 -2.125000 0.000000 -0.280648 -0.959777 0.459817 0.711179 
0.000000 0.000000 -2.125000 0.000000 0.000000 -1.000000 0.459817 0.664024 
6.952494 0.778513 -2.125000 0.553026 0.365917 -0.748497 0.880936 0.616868 
3.550000 0.778513 -2.125000 0.000000 0.280648 -0.959777 0.674843 0.616869 
6.713403 1.071984 -1.937316 0.288583 0.811548 -0.508011 0.889257 0.275697 
6.952494 0.778513 -2.125000 0.553026 0.365917 -0.748497 0.909591 0.298941 
3.550000 0.778513 -2.125000 0.000000 0.280648 -0.959777 0.692161 0.308863 
3.550000 1.071984 -1.937316 0.000000 0.818506 -0.574450 0.691332 0.280663 
0.000000 0.778513 -2.125000 0.000000 0.280648 -0.959777 0.459817 0.616869 
0.000000 0.778513 -2.125000 0.000000 0.280648 -0.959777 0.468155 0.308865 
0.000000 1.071984 -1.937316 0.000000 0.818506 -0.574450 0.467666 0.279589 
-3.549999 -1.071984 -1.937316 0.000000 -0.818506 -0.574450 0.243619 0.336987 
-3.550000 -0.778513 -2.125000 0.000000 -0.280648 -0.959777 0.242811 0.308869 
-3.550000 -0.778513 -2.125000 0.000000 -0.280648 -0.959777 0.244792 0.711178 
-3.550000 -0.000000 -2.125000 0.000000 0.000000 -1.000000 0.244793 0.664023 
-6.713403 -1.071984 -1.937316 -0.288583 -0.811548 -0.508011 0.046166 0.341681 
-6.952494 -0.778513 -2.125000 -0.553026 -0.365917 -0.748497 0.025908 0.318466 
-6.952494 -0.778513 -2.125000 -0.553026 -0.365917 -0.748497 0.038704 0.711176 
-6.952494 -0.000000 -2.125000 -0.620136 0.000000 -0.784478 0.038704 0.664022 
-3.550000 0.778513 -2.125000 0.000000 0.280648 -0.959777 0.244793 0.616869 
-3.550000 0.778513 -2.125000 0.000000 0.280648 -0.959777 0.244765 0.308480 
-3.550000 1.071984 -1.937316 0.000000 0.818506 -0.574450 0.244877 0.280418 
-6.952494 0.778513 -2.125000 -0.553026 0.365917 -0.748497 0.038705 0.616868 
-6.952494 0.778513 -2.125000 -0.553026 0.365917 -0.748497 0.027738 0.301585 
-6.713403 1.071984 -1.937316 -0.288583 0.811548 -0.508011 0.047719 0.278112 
-3.550000 1.071984 1.937316 0.000000 0.818506 0.574450 0.244306 0.028433 
-6.713404 1.071984 1.937316 -0.288583 0.811548 0.508011 0.046448 0.031573 
-6.952495 0.778513 2.125000 -0.553026 0.365917 0.748497 0.026586 0.008451 
-3.550000 0.778513 2.125000 0.000000 0.280648 0.959777 0.243567 0.000259 
0.000000 1.071984 1.937316 0.000000 0.818506 0.574450 0.467530 0.029211 
-0.000000 0.778513 2.125000 0.000000 0.280648 0.959777 0.467032 0.000000 
-3.550000 0.778513 2.125000 0.000000 0.280648 0.959777 0.244614 0.805426 
-6.952495 0.778513 2.125000 -0.553026 0.365917 0.748497 0.038678 0.805431 
-6.952495 0.000000 2.125000 -0.620136 0.000000 0.784478 0.038677 0.758311 
-3.550000 -0.000000 2.125000 0.000000 0.000000 1.000000 0.244613 0.758306 
-0.000000 0.778513 2.125000 0.000000 0.280648 0.959777 0.459479 0.805422 
-0.000000 -0.000000 2.125000 0.000000 0.000000 1.000000 0.459479 0.758302 
3.550000 1.071984 1.937316 0.000000 0.818506 0.574450 0.689988 0.028549 
3.550000 0.778513 2.125000 0.000000 0.280648 0.959777 0.689999 0.000496 
6.713404 1.071984 1.937316 0.288583 0.811548 0.508011 0.887304 0.028931 
6.952495 0.778513 2.125000 0.553026 0.365917 0.748497 0.906830 0.005541 
3.550000 0.778513 2.125000 0.000000 0.280648 0.959777 0.674346 0.805420 
3.550000 -0.000000 2.125000 0.000000 0.000000 1.000000 0.674345 0.758300 
6.952495 0.778513 2.125000 0.553026 0.365917 0.748497 0.880284 0.805420 
6.952494 -0.000000 2.125000 0.620136 0.000000 0.784478 0.880284 0.758300 
-6.952495 -0.778513 2.125000 -0.553026 -0.365917 0.748497 0.038675 0.711192 
-3.550000 -0.778513 2.125000 0.000000 -0.280648 0.959777 0.244612 0.711186 
-0.000000 -0.778513 2.125000 0.000000 -0.280648 0.959777 0.459478 0.711182 
-3.550000 -0.778513 2.125000 0.000000 -0.280648 0.959777 0.244575 0.616413 
-6.952495 -0.778513 2.125000 -0.553026 -0.365917 0.748497 0.028352 0.611045 
-6.713404 -1.071984 1.937316 -0.288583 -0.811548 0.508011 0.047850 0.587752 
-3.550000 -1.071984 1.937316 0.000000 -0.818506 0.574450 0.244601 0.588426 
-0.000000 -0.778513 2.125000 0.000000 -0.280648 0.959777 0.467163 0.616867 
-0.000000 -1.071984 1.937316 0.000000 -0.818506 0.574450 0.466682 0.587710 
3.549999 -0.778513 2.125000 0.000000 -0.280648 0.959777 0.674345 0.711180 
6.952494 -0.778513 2.125000 0.553026 -0.365917 0.748497 0.880284 0.711179 
3.549999 -0.778513 2.125000 0.000000 -0.280648 0.959777 0.690346 0.616864 
3.549999 -1.071984 1.937316 0.000000 -0.818506 0.574450 0.689538 0.588746 
6.952494 -0.778513 2.125000 0.553026 -0.365917 0.748497 0.907248 0.607267 
6.713403 -1.071984 1.937316 0.288583 -0.811548 0.508011 0.886990 0.584053 
6.855837 1.170000 1.503260 0.453749 0.880551 0.136845 0.896131 0.056557 
7.100000 0.778513 1.503260 0.945128 0.299417 0.130497 0.926494 0.048802 
6.855836 1.170000 0.000000 0.485153 0.874386 0.000000 0.903749 0.151697 
7.100000 0.778513 0.000000 0.961364 0.275216 0.000000 0.935424 0.151291 
7.100000 0.778513 1.503260 0.945128 0.299417 0.130497 0.918960 0.805420 
7.100000 -0.000000 1.503260 0.993225 0.000000 0.116184 0.918960 0.758299 
7.100000 0.778513 0.000000 0.961364 0.275216 0.000000 0.100763 0.902716 
7.100000 0.778513 1.503260 0.945128 0.299417 0.130497 0.100764 1.000000 
7.100000 -0.000000 1.503260 0.993225 0.000000 0.116184 0.050382 1.000000 
7.100000 0.000000 0.000000 1.000000 0.000000 0.000000 0.050382 0.902716 
6.855836 1.170000 -1.503260 0.453749 0.880551 -0.136845 0.897430 0.247504 
7.099999 0.778513 -1.503260 0.945128 0.299417 -0.130497 0.928944 0.254689 
7.099999 0.778513 -1.503260 0.945128 0.299417 -0.130497 0.100764 0.805432 
7.100000 0.000000 -1.503260 0.993225 0.000000 -0.116184 0.050382 0.805432 
7.099999 0.778513 -1.503260 0.945128 0.299417 -0.130497 0.919641 0.616867 
7.100000 0.000000 -1.503260 0.993225 0.000000 -0.116184 0.919642 0.664023 
7.099999 -0.778513 1.503260 0.945128 -0.299417 0.130497 0.918960 0.711179 
7.099999 -0.778513 1.503260 0.945128 -0.299417 0.130497 0.000000 1.000000 
7.100000 -0.778513 0.000000 0.961364 -0.275216 0.000000 0.000000 0.902716 
7.099999 -0.778513 1.503260 0.945128 -0.299417 0.130497 0.926608 0.563135 
6.855836 -1.170000 1.503260 0.453749 -0.880551 0.136845 0.895178 0.555932 
7.100000 -0.778513 0.000000 0.961364 -0.275216 0.000000 0.933156 0.460015 
6.855836 -1.170000 0.000000 0.485153 -0.874386 0.000000 0.901571 0.460389 
7.100000 -0.778513 -1.503260 0.945128 -0.299417 -0.130497 0.000000 0.805432 
7.100000 -0.778513 -1.503260 0.945128 -0.299417 -0.130497 0.919642 0.711179 
7.100000 -0.778513 -1.503260 0.945128 -0.299417 -0.130497 0.924348 0.357837 
6.855837 -1.170000 -1.503260 0.453749 -0.880551 -0.136845 0.894071 0.365531 
3.550000 -1.170000 1.503260 0.000000 -0.993835 0.110813 0.689392 0.559602 
3.550000 -1.170000 0.000000 0.000000 -1.000000 0.000000 0.689379 0.462075 
-0.000000 -1.170000 1.503260 0.000000 -0.993835 0.110813 0.466777 0.558459 
0.000000 -1.170000 0.000000 0.000000 -1.000000 0.000000 0.466579 0.462866 
3.550000 -1.170000 -1.503260 0.000000 -0.993835 -0.110813 0.688571 0.366312 
0.000000 -1.170000 -1.503260 0.000000 -0.993835 -0.110813 0.466381 0.367274 
-3.550000 -1.170000 1.503260 0.000000 -0.993835 0.110813 0.244587 0.559422 
-3.550000 -1.170000 0.000000 0.000000 -1.000000 0.000000 0.243778 0.463659 
-6.855837 -1.170000 1.503260 -0.453749 -0.880551 0.136845 0.039086 0.560204 
-6.855836 -1.170000 0.000000 -0.485153 -0.874386 0.000000 0.031585 0.465346 
-3.550000 -1.170000 -1.503260 0.000000 -0.993835 -0.110813 0.243765 0.366132 
-6.855836 -1.170000 -1.503260 -0.453749 -0.880551 -0.136845 0.037978 0.369802 
-7.100000 -0.778513 1.503260 -0.945128 -0.299417 0.130497 0.008809 0.567898 
-7.100000 -0.778513 0.000000 -0.961364 -0.275216 0.000000 0.000000 0.465720 
-7.100000 -0.778513 1.503260 -0.945128 -0.299417 0.130497 0.000000 0.711193 
-7.100000 -0.000000 1.503260 -0.993225 0.000000 0.116184 0.000002 0.758313 
-7.100000 -0.778513 0.000000 -0.961364 -0.275216 0.000000 0.198048 0.906195 
-7.100000 -0.778513 1.503260 -0.945128 -0.299417 0.130497 0.100764 0.906195 
-7.100000 -0.000000 1.503260 -0.993225 0.000000 0.116184 0.100764 0.855814 
-7.100000 -0.000000 0.000000 -1.000000 0.000000 0.000000 0.198048 0.855814 
-7.099999 -0.778513 -1.503260 -0.945128 -0.299417 -0.130497 0.006548 0.362599 
-7.099999 -0.778513 -1.503260 -0.945128 -0.299417 -0.130497 0.295331 0.906195 
-7.099999 -0.000000 -1.503260 -0.993225 0.000000 -0.116184 0.295331 0.855814 
-7.099999 -0.778513 -1.503260 -0.945128 -0.299417 -0.130497 0.000000 0.711176 
-7.099999 -0.000000 -1.503260 -0.993225 0.000000 -0.116184 0.000000 0.664021 
-7.100000 0.778513 1.503260 -0.945128 0.299417 0.130497 0.000003 0.805432 
-7.100000 0.778513 1.503260 -0.945128 0.299417 0.130497 0.100764 0.805432 
-7.100000 0.778513 0.000000 -0.961364 0.275216 0.000000 0.198048 0.805432 
-7.100000 0.778513 1.503260 -0.945128 0.299417 0.130497 0.007543 0.051989 
-6.855837 1.170000 1.503260 -0.453749 0.880551 0.136845 0.037998 0.059326 
-7.100000 0.778513 0.000000 -0.961364 0.275216 0.000000 0.000000 0.154491 
-6.855836 1.170000 0.000000 -0.485153 0.874386 0.000000 0.031645 0.154478 
-7.099999 0.778513 -1.503260 -0.945128 0.299417 -0.130497 0.295331 0.805432 
-7.099999 0.778513 -1.503260 -0.945128 0.299417 -0.130497 0.000001 0.616867 
-7.099999 0.778513 -1.503260 -0.945128 0.299417 -0.130497 0.007818 0.257670 
-6.855836 1.170000 -1.503260 -0.453749 0.880551 -0.136845 0.039189 0.250082 
3.550000 1.170000 -1.503260 0.000000 0.993835 -0.110813 0.691081 0.251512 
3.550000 1.170000 0.000000 0.000000 1.000000 0.000000 0.690982 0.153644 
0.000000 1.170000 -1.503260 0.000000 0.993835 -0.110813 0.467601 0.250160 
0.000000 1.170000 0.000000 0.000000 1.000000 0.000000 0.467619 0.154103 
3.550000 1.170000 1.503260 0.000000 0.993835 0.110813 0.690119 0.057683 
0.000000 1.170000 1.503260 0.000000 0.993835 0.110813 0.467605 0.058568 
-3.550000 1.170000 -1.503260 0.000000 0.993835 -0.110813 0.244846 0.251323 
-3.550000 1.170000 0.000000 0.000000 1.000000 0.000000 0.244232 0.153777 
-3.550000 1.170000 1.503260 0.000000 0.993835 0.110813 0.244466 0.057603 
4 0 1 2 3 
4 4 5 6 7 
4 3 2 8 9 
4 7 6 10 11 
4 12 4 7 13 
4 14 15 16 17 
4 13 7 11 18 
4 17 16 19 20 
4 9 8 21 22 
4 11 10 23 24 
4 22 21 25 26 
4 24 23 27 28 
4 18 11 24 29 
4 20 19 30 31 
4 29 24 28 32 
4 31 30 33 34 
4 35 36 37 38 
4 39 35 38 40 
4 41 42 43 44 
4 45 41 44 46 
4 47 39 40 48 
4 49 47 48 50 
4 51 45 46 52 
4 53 51 52 54 
4 44 43 55 56 
4 46 44 56 57 
4 58 59 60 61 
4 62 58 61 63 
4 52 46 57 64 
4 54 52 64 65 
4 66 62 63 67 
4 68 66 67 69 
4 70 49 50 71 
4 72 70 71 73 
4 74 53 54 75 
4 76 77 78 79 
4 80 72 73 81 
4 14 80 81 15 
4 82 76 79 83 
4 12 84 85 4 
4 75 54 65 86 
4 79 78 87 88 
4 89 68 69 90 
4 91 89 90 92 
4 83 79 88 93 
4 4 85 94 5 
4 95 91 92 96 
4 0 95 96 1 
4 90 69 67 97 
4 92 90 97 98 
4 97 67 63 99 
4 98 97 99 100 
4 96 92 98 101 
4 1 96 101 2 
4 101 98 100 102 
4 2 101 102 8 
4 99 63 61 103 
4 100 99 103 104 
4 103 61 60 105 
4 104 103 105 106 
4 102 100 104 107 
4 8 102 107 21 
4 107 104 106 108 
4 21 107 108 25 
4 105 60 59 109 
4 106 105 109 110 
4 111 55 43 112 
4 113 114 115 116 
4 108 106 110 117 
4 25 108 117 26 
4 118 113 116 119 
4 27 120 121 28 
4 112 43 42 122 
4 116 115 123 124 
4 125 37 36 126 
4 127 125 126 128 
4 119 116 124 129 
4 28 121 130 32 
4 131 127 128 132 
4 33 131 132 34 
4 80 14 17 133 
4 72 80 133 134 
4 133 17 20 135 
4 134 133 135 136 
4 70 72 134 137 
4 49 70 137 47 
4 137 134 136 138 
4 47 137 138 39 
4 135 20 31 139 
4 136 135 139 140 
4 139 31 34 132 
4 140 139 132 128 
4 138 136 140 141 
4 39 138 141 35 
4 141 140 128 126 
4 35 141 126 36 
