ply
format ascii 1.0
Created by Blender3D 245 - www.blender.org, source file: i4copter-propeller.blend
element vertex 488
property float x
property float y
property float z
property float nx
property float ny
property float nz
property float s
property float t
element face 424
property list uchar uint vertex_indices
end_header
-0.860401 0.202799 7.227464 -0.132847 -0.991119 0.001526 0.035451 0.483489 
-0.557900 0.176597 7.210270 -0.035493 -0.999359 0.000397 0.053477 0.483494 
-0.493775 0.176597 9.485864 -0.050600 -0.998688 0.005005 0.052212 0.616774 
-0.796276 0.202799 9.503058 -0.144475 -0.989410 0.013276 0.034484 0.617067 
-0.173450 0.182481 7.230820 0.134007 -0.990966 -0.001556 0.076154 0.486066 
-0.109324 0.182481 9.506413 0.132328 -0.991180 -0.006134 0.072388 0.618681 
0.194043 0.277683 7.234138 0.323344 -0.946257 -0.004425 0.098512 0.487704 
0.258169 0.277683 9.509732 0.326365 -0.945128 -0.013672 0.092418 0.620057 
0.499860 0.404883 7.234138 0.393597 -0.919248 -0.007355 0.117959 0.488939 
0.563986 0.404883 9.509732 0.395642 -0.918271 -0.013825 0.110943 0.621328 
0.700027 0.487296 7.234138 0.508194 -0.861141 -0.012329 0.135342 0.490566 
0.764152 0.487296 9.509732 0.510453 -0.859767 -0.014466 0.128114 0.622751 
0.764070 0.537228 7.234138 0.987304 0.156682 -0.025208 0.152568 0.492990 
0.828195 0.537228 9.509732 0.987152 0.158208 -0.020936 0.145234 0.624694 
0.764070 0.537228 7.234138 0.987304 0.156682 -0.025208 0.530538 0.484942 
0.682239 0.566873 7.234138 0.148991 0.988800 -0.003876 0.548060 0.484006 
0.746364 0.566873 9.509732 0.141240 0.989959 0.001434 0.546654 0.617613 
0.828195 0.537228 9.509732 0.987152 0.158208 -0.020936 0.529296 0.618183 
0.466992 0.556772 7.234138 -0.139714 0.990173 0.002289 0.565617 0.483434 
0.531118 0.556772 9.509732 -0.148839 0.988800 0.010590 0.563948 0.617146 
0.151099 0.484464 7.234138 -0.190954 0.981567 0.002625 0.584762 0.483420 
0.215225 0.484464 9.509732 -0.198218 0.980041 0.014161 0.582361 0.616951 
-0.217604 0.427845 7.233810 -0.103824 0.994568 0.001190 0.606914 0.483411 
-0.153479 0.427845 9.509403 -0.105167 0.994385 0.011505 0.602306 0.616891 
-0.591316 0.407011 7.222505 -0.081362 0.996673 0.000916 0.629163 0.482862 
-0.527191 0.407011 9.498099 -0.068819 0.997589 0.008484 0.622253 0.616590 
-0.890209 0.374822 7.231397 -0.186010 0.982513 0.002136 0.647095 0.483365 
-0.826083 0.374822 9.506990 -0.170660 0.985229 0.012055 0.639848 0.617271 
-1.088240 0.320643 7.234138 -0.448042 0.893979 0.005188 0.664682 0.483764 
-1.024114 0.320643 9.509732 -0.441237 0.896878 0.029176 0.657259 0.617447 
-1.152282 0.270711 7.234138 -0.987548 -0.156713 0.011444 0.682469 0.484283 
-1.088157 0.270711 9.509732 -0.985351 -0.154729 0.071261 0.674655 0.617572 
-1.152282 0.270711 7.234138 -0.987548 -0.156713 0.011444 0.000000 0.482571 
-1.070451 0.241066 7.234138 -0.260781 -0.965361 0.003021 0.017802 0.483444 
-1.006325 0.241066 9.509732 -0.263466 -0.964385 0.022309 0.017294 0.616832 
-1.088157 0.270711 9.509732 -0.985351 -0.154729 0.071261 0.000000 0.615791 
-0.506387 0.230837 12.427573 -0.131504 -0.990509 0.039705 0.040252 0.754565 
-0.681168 0.264811 12.437276 -0.252663 -0.965941 0.055666 0.023260 0.753541 
-0.750194 0.291085 12.437654 -0.974548 -0.151372 0.165227 0.006443 0.752547 
-0.750194 0.291085 12.437654 -0.974548 -0.151372 0.165227 0.660629 0.753767 
-0.696006 0.333136 12.437573 -0.434278 0.898556 0.062929 0.643369 0.754179 
-0.531160 0.367538 12.431518 -0.162938 0.986419 0.019166 0.626070 0.754605 
-0.278535 0.376002 12.423253 -0.070833 0.997467 0.003967 0.608766 0.754799 
0.039650 0.382116 12.434899 -0.112857 0.993591 0.003998 0.591341 0.755792 
0.353911 0.445457 12.437654 -0.195685 0.980590 0.010407 0.573901 0.755956 
0.621506 0.520233 12.437654 -0.146764 0.989044 0.013855 0.556675 0.755563 
0.803843 0.541528 12.437654 0.135716 0.990600 0.015900 0.539695 0.754818 
0.873163 0.516854 12.437654 0.986969 0.160039 0.015931 0.522924 0.754100 
0.873163 0.516854 12.437654 0.986969 0.160039 0.015931 0.143192 0.760288 
0.818912 0.473898 12.437654 0.515061 -0.857112 -0.002289 0.126235 0.759622 
0.649349 0.389119 12.437654 0.392529 -0.919706 -0.001373 0.109058 0.759639 
0.390289 0.265476 12.437654 0.314707 -0.949156 0.006256 0.091768 0.759141 
0.075899 0.176221 12.430882 0.130009 -0.991272 0.021058 0.074494 0.757662 
-0.249530 0.183723 12.413785 -0.048433 -0.998230 0.034394 0.057351 0.755318 
0.118824 0.331535 15.015883 0.009644 -0.994140 0.107639 0.059874 0.879396 
-0.036773 0.321342 15.015883 -0.036317 -0.986663 0.158452 0.044278 0.876451 
0.300310 0.352756 15.015883 0.132511 -0.982940 0.127323 0.076759 0.881703 
0.480052 0.381773 15.015883 0.257210 -0.962249 0.088961 0.093695 0.882404 
0.630688 0.414170 15.015883 0.307138 -0.941313 0.139744 0.109163 0.882420 
0.729283 0.445013 15.015883 0.464736 -0.845302 0.263527 0.122404 0.881811 
0.760828 0.469608 15.015883 0.776605 0.133885 0.615558 0.136461 0.883415 
0.720521 0.484211 15.015883 0.146886 0.953856 0.261818 0.533694 0.872800 
0.760828 0.469608 15.015883 0.776605 0.133885 0.615558 0.523629 0.873915 
0.614498 0.486597 15.015883 -0.083895 0.987213 0.135472 0.545834 0.875382 
0.458899 0.476404 15.015883 -0.152806 0.986023 0.066256 0.560853 0.877806 
0.277414 0.455183 15.015883 -0.127873 0.987121 0.096042 0.577572 0.879784 
0.097671 0.426166 15.015883 -0.117283 0.991028 0.063723 0.594757 0.879929 
-0.052964 0.393769 15.015883 -0.202765 0.968810 0.142247 0.611031 0.879004 
-0.151559 0.362926 15.015883 -0.420118 0.856807 0.298898 0.624985 0.878304 
-0.183105 0.338331 15.015883 -0.740410 -0.124638 0.660482 0.639493 0.880914 
-0.142797 0.323728 15.015883 -0.197974 -0.938047 0.284310 0.031199 0.874639 
-0.183105 0.338331 15.015883 -0.740410 -0.124638 0.660482 0.020660 0.875223 
0.288862 0.403970 15.288920 0.000000 0.000000 1.000000 0.073636 0.910945 
0.288862 0.403970 15.288920 0.000000 0.000000 1.000000 0.574686 0.909187 
-0.546441 0.176597 4.897492 -0.050905 -0.998627 -0.011902 0.062278 0.344274 
-0.848942 0.202799 4.914687 -0.152654 -0.988037 -0.021546 0.043225 0.344562 
-0.161991 0.182481 4.918042 0.130284 -0.991455 -0.004151 0.086301 0.347031 
0.205502 0.277683 4.921360 0.321696 -0.946806 -0.000336 0.110057 0.349094 
0.475597 0.404883 4.921360 0.396924 -0.917814 0.001862 0.128807 0.350914 
0.646969 0.487296 4.921360 0.529038 -0.848537 -0.004913 0.145685 0.353231 
0.711012 0.537228 4.921360 0.989380 0.138035 -0.045106 0.162535 0.355648 
0.629181 0.566873 4.921360 0.211097 0.977142 -0.023835 0.547098 0.345842 
0.711012 0.537228 4.921360 0.989380 0.138035 -0.045106 0.530000 0.346655 
0.440723 0.556772 4.921360 -0.086489 0.996246 -0.001831 0.564171 0.344693 
0.162558 0.484464 4.921360 -0.156896 0.987487 0.014252 0.582684 0.344133 
-0.206145 0.427845 4.921031 -0.098575 0.994873 0.022156 0.606175 0.343891 
-0.579857 0.407011 4.909727 -0.092318 0.995514 0.020600 0.629730 0.343370 
-0.878750 0.374822 4.918619 -0.198340 0.980041 0.011414 0.648630 0.344428 
-1.076781 0.320643 4.921360 -0.469344 0.882931 -0.010498 0.665711 0.345657 
-1.140823 0.270711 4.921360 -0.988403 -0.136204 -0.066805 0.682741 0.346567 
-1.058992 0.241066 4.921360 -0.303659 -0.952086 -0.035859 0.026048 0.344802 
-1.140823 0.270711 4.921360 -0.988403 -0.136204 -0.066805 0.008998 0.344250 
-0.667016 0.256120 3.010239 -0.235786 -0.970306 -0.053774 0.061061 0.218678 
-0.840023 0.301310 3.010239 -0.472640 -0.874447 -0.109104 0.044443 0.218573 
-0.904851 0.350463 3.010239 -0.980193 -0.073702 -0.183660 0.027672 0.217959 
-0.904851 0.350463 3.010239 -0.980193 -0.073702 -0.183660 0.671801 0.219255 
-0.851630 0.406859 3.010239 -0.569781 0.818751 -0.070589 0.655229 0.218867 
-0.688463 0.460172 3.010239 -0.263131 0.964751 -0.000977 0.638766 0.217534 
-0.440191 0.502740 3.010239 -0.127628 0.991394 0.028413 0.621909 0.216458 
-0.144611 0.529435 3.010239 -0.072298 0.996734 0.035371 0.602129 0.216010 
0.150991 0.549784 3.010239 -0.025422 0.999420 0.022095 0.582289 0.216308 
0.363184 0.538486 3.010239 0.115360 0.993286 -0.006623 0.565416 0.217026 
0.516614 0.505727 3.010239 0.438337 0.897580 -0.046693 0.548925 0.218372 
0.581441 0.457476 3.010239 0.994720 0.077090 -0.067690 0.532472 0.219406 
0.581441 0.457476 3.010239 0.994720 0.077090 -0.067690 0.167370 0.229715 
0.528220 0.401080 3.010239 0.605548 -0.795709 -0.009033 0.151279 0.226991 
0.384630 0.345124 3.010239 0.382153 -0.924009 0.011933 0.135069 0.224310 
0.179596 0.279614 3.010239 0.281991 -0.959349 0.009583 0.118361 0.222337 
-0.114283 0.202110 3.010239 0.101230 -0.994842 -0.003327 0.098143 0.220436 
-0.412172 0.209364 3.010239 -0.100253 -0.994629 -0.025117 0.078253 0.219270 
-0.298509 0.267999 1.043102 -0.397107 -0.917753 -0.000855 0.082459 0.090539 
-0.161190 0.226315 1.043102 -0.179693 -0.983154 0.032533 0.099801 0.091026 
0.000789 0.211678 1.043102 0.037935 -0.997894 0.052065 0.118068 0.092592 
0.162769 0.226315 1.043102 0.236732 -0.969970 0.055696 0.136127 0.094991 
0.300088 0.267998 1.043102 0.433699 -0.900143 0.039979 0.152768 0.098591 
0.391842 0.330383 1.043102 0.743675 -0.668508 0.003937 0.167469 0.102044 
0.424062 0.403970 1.043102 0.999359 0.020814 -0.028565 0.181028 0.104886 
0.424062 0.403970 1.043102 0.999359 0.020814 -0.028565 0.527975 0.092719 
0.391843 0.477557 1.043102 0.711600 0.702475 -0.010651 0.541869 0.091528 
0.300089 0.539941 1.043102 0.376873 0.925840 0.027680 0.556939 0.089568 
0.162769 0.581624 1.043102 0.147038 0.987640 0.053713 0.573965 0.087738 
0.000790 0.596262 1.043102 -0.025697 0.997620 0.063631 0.592183 0.087214 
-0.161190 0.581624 1.043102 -0.188330 0.980621 0.053377 0.610504 0.087666 
-0.298509 0.539941 1.043102 -0.404798 0.914182 0.018891 0.627736 0.088961 
-0.390263 0.477557 1.043102 -0.736015 0.675253 -0.048006 0.643039 0.090544 
-0.422483 0.403970 1.043102 -0.994415 -0.019471 -0.103519 0.657198 0.091113 
-0.422483 0.403970 1.043102 -0.994415 -0.019471 -0.103519 0.052777 0.089643 
-0.390263 0.330383 1.043102 -0.713553 -0.697928 -0.060701 0.067011 0.090583 
-0.298509 0.215939 0.348871 -0.490768 -0.868923 0.063845 0.089735 0.002109 
-0.161190 0.158296 0.348871 -0.224342 -0.970183 0.091617 0.108444 0.003865 
0.000789 0.138055 0.348871 0.000000 -0.994812 0.101474 0.128676 0.006244 
0.162769 0.158296 0.348871 0.224342 -0.970183 0.091617 0.148771 0.009138 
0.300088 0.215939 0.348871 0.490768 -0.868923 0.063845 0.167143 0.012272 
0.391842 0.302208 0.348871 0.813044 -0.581561 0.026887 0.182724 0.015208 
0.424062 0.403970 0.348871 0.999969 0.000000 0.007447 0.195914 0.017729 
0.424062 0.403970 0.348871 0.999969 0.000000 0.007447 0.522923 0.003929 
0.391843 0.505731 0.348871 0.813044 0.581561 0.026887 0.536363 0.002890 
0.300089 0.592000 0.348871 0.490768 0.868923 0.063845 0.552234 0.001703 
0.162769 0.649643 0.348871 0.224342 0.970183 0.091617 0.570940 0.000630 
0.000790 0.669885 0.348871 0.000000 0.994812 0.101474 0.591354 0.000000 
-0.161190 0.649643 0.348871 -0.224342 0.970183 0.091617 0.611784 0.000180 
-0.298509 0.592000 0.348871 -0.490768 0.868923 0.063845 0.630529 0.000811 
-0.390263 0.505731 0.348871 -0.813044 0.581561 0.026887 0.646470 0.001608 
-0.422483 0.403970 0.348871 -0.999969 0.000000 0.007447 0.659852 0.002274 
-0.422483 0.403970 0.348871 -0.999969 0.000000 0.007447 0.060185 0.000000 
-0.390263 0.302208 0.348871 -0.813044 -0.581561 0.026887 0.073698 0.000835 
0.299752 0.267999 -1.018271 0.397107 -0.917753 0.000855 0.303800 0.821410 
0.391506 0.330383 -1.018271 0.713553 -0.697928 0.060701 0.319151 0.820247 
0.391506 0.302208 -0.324040 0.813044 -0.581561 -0.026887 0.319583 0.909572 
0.299752 0.215939 -0.324040 0.490768 -0.868923 -0.063845 0.303604 0.909835 
0.423726 0.403970 -1.018271 0.994415 -0.019471 0.103519 0.333343 0.820171 
0.423726 0.403970 -0.324040 0.999969 0.000000 -0.007447 0.333005 0.909344 
0.423726 0.403970 -1.018271 0.994415 -0.019471 0.103519 0.388643 0.818070 
0.391506 0.477557 -1.018271 0.736015 0.675253 0.048006 0.402803 0.818638 
0.391506 0.505731 -0.324040 0.813044 0.581561 -0.026887 0.399371 0.907578 
0.423726 0.403970 -0.324040 0.999969 0.000000 -0.007447 0.385988 0.906912 
0.299752 0.539941 -1.018271 0.404798 0.914182 -0.018891 0.418107 0.820221 
0.299752 0.592000 -0.324040 0.490768 0.868923 -0.063845 0.415313 0.908375 
0.162433 0.581624 -1.018271 0.188330 0.980621 -0.053377 0.435339 0.821517 
0.162433 0.649643 -0.324040 0.224342 0.970183 -0.091617 0.434058 0.909006 
0.000453 0.596262 -1.018271 0.025697 0.997620 -0.063631 0.453660 0.821969 
0.000453 0.669885 -0.324040 0.000000 0.994812 -0.101474 0.454489 0.909187 
-0.161526 0.581624 -1.018271 -0.147038 0.987640 -0.053713 0.471880 0.821445 
-0.161526 0.649643 -0.324040 -0.224342 0.970183 -0.091617 0.474905 0.908556 
-0.298846 0.539941 -1.018271 -0.376843 0.925840 -0.027680 0.488907 0.819615 
-0.298846 0.592000 -0.324040 -0.490768 0.868923 -0.063845 0.493611 0.907484 
-0.390600 0.477557 -1.018271 -0.711600 0.702475 0.010651 0.503977 0.817655 
-0.390600 0.505731 -0.324040 -0.813044 0.581561 -0.026887 0.509483 0.906296 
-0.422819 0.403970 -1.018271 -0.999359 0.020814 0.028565 0.517872 0.816464 
-0.422819 0.403970 -0.324040 -0.999969 0.000000 -0.007447 0.522923 0.905258 
-0.422819 0.403970 -1.018271 -0.999359 0.020814 0.028565 0.204194 0.814235 
-0.390600 0.330383 -1.018271 -0.743675 -0.668508 -0.003937 0.218011 0.816123 
-0.390600 0.302208 -0.324040 -0.813044 -0.581561 -0.026887 0.209367 0.904521 
-0.422819 0.403970 -0.324040 -0.999969 0.000000 -0.007447 0.195914 0.902999 
-0.298846 0.267999 -1.018271 -0.433699 -0.900143 -0.039979 0.233001 0.818530 
-0.298846 0.215939 -0.324040 -0.490768 -0.868923 -0.063845 0.225253 0.906271 
-0.161526 0.226315 -1.018271 -0.236732 -0.969970 -0.055696 0.249927 0.820924 
-0.161526 0.158296 -0.324040 -0.224342 -0.970183 -0.091617 0.243957 0.907994 
0.000453 0.211678 -1.018271 -0.037935 -0.997894 -0.052065 0.268158 0.821996 
0.000453 0.138055 -0.324040 0.000000 -0.994812 -0.101474 0.264373 0.909323 
0.162433 0.226315 -1.018271 0.179693 -0.983154 -0.032533 0.286499 0.822204 
0.162433 0.158296 -0.324040 0.224342 -0.970183 -0.091617 0.284829 0.909834 
-0.299068 0.352756 -14.991054 -0.132511 -0.982940 -0.127323 0.267935 0.029452 
-0.287620 0.403970 -15.264091 0.000000 0.000000 -1.000000 0.269811 0.000000 
0.038015 0.321342 -14.991054 0.036317 -0.986663 -0.158452 0.300716 0.033307 
-0.117583 0.331535 -14.991054 -0.009644 -0.994140 -0.107639 0.284960 0.031032 
-0.629446 0.414170 -14.991054 -0.307138 -0.941313 -0.139744 0.235409 0.030141 
-0.478811 0.381773 -14.991054 -0.257210 -0.962249 -0.088961 0.250923 0.029485 
-0.276172 0.455183 -14.991054 0.127873 0.987121 -0.096042 0.468276 0.029402 
-0.287620 0.403970 -15.264091 0.000000 0.000000 -1.000000 0.471162 0.000000 
-0.613256 0.486597 -14.991054 0.083895 0.987213 -0.135472 0.500013 0.033804 
-0.457658 0.476404 -14.991054 0.152806 0.986023 -0.066256 0.484994 0.031380 
0.054206 0.393769 -14.991054 0.202765 0.968810 -0.142247 0.434817 0.030181 
-0.096430 0.426166 -14.991054 0.117283 0.991028 -0.063723 0.451091 0.029257 
0.668259 0.256120 -2.985407 0.235786 -0.970306 0.053774 0.316619 0.692349 
0.841266 0.301310 -2.985408 0.472640 -0.874447 0.109104 0.333184 0.691429 
0.906093 0.350462 -2.985408 0.980193 -0.073702 0.183660 0.349918 0.691010 
0.906093 0.350462 -2.985408 0.980193 -0.073702 0.183660 0.374042 0.689922 
0.852872 0.406859 -2.985408 0.569781 0.818751 0.070589 0.390614 0.690311 
0.689706 0.460172 -2.985407 0.263131 0.964751 0.000977 0.407078 0.691645 
0.441434 0.502740 -2.985407 0.127628 0.991394 -0.028413 0.423935 0.692720 
0.145854 0.529435 -2.985407 0.072298 0.996734 -0.035371 0.443715 0.693169 
-0.149748 0.549784 -2.985407 0.025422 0.999420 -0.022095 0.463556 0.692871 
-0.361942 0.538486 -2.985407 -0.115360 0.993286 0.006623 0.480429 0.692153 
-0.515371 0.505727 -2.985407 -0.438337 0.897580 0.046693 0.496920 0.690807 
-0.580198 0.457477 -2.985407 -0.994720 0.077090 0.067690 0.513374 0.689773 
-0.580198 0.457477 -2.985407 -0.994720 0.077090 0.067690 0.209544 0.687949 
-0.526977 0.401080 -2.985407 -0.605548 -0.795709 0.009033 0.225868 0.689674 
-0.383387 0.345124 -2.985407 -0.382153 -0.924009 -0.011933 0.242292 0.691346 
-0.178353 0.279614 -2.985407 -0.281991 -0.959349 -0.009583 0.259152 0.692271 
0.115525 0.202110 -2.985407 -0.101230 -0.994842 0.003327 0.279494 0.692905 
0.413414 0.209364 -2.985407 0.100253 -0.994629 0.025117 0.299433 0.692826 
0.547684 0.176596 -4.872662 0.050905 -0.998627 0.011902 0.308127 0.567019 
0.850184 0.202799 -4.889857 0.152654 -0.988037 0.021546 0.327146 0.565677 
0.163233 0.182481 -4.893212 -0.130284 -0.991455 0.004151 0.283952 0.565597 
-0.204260 0.277683 -4.896530 -0.321696 -0.946806 0.000336 0.260055 0.564857 
-0.474354 0.404883 -4.896530 -0.396924 -0.917814 -0.001862 0.241165 0.564080 
-0.645726 0.487296 -4.896530 -0.529038 -0.848537 0.004913 0.224109 0.562693 
-0.709769 0.537229 -4.896530 -0.989380 0.138035 0.045106 0.207065 0.561203 
-0.627938 0.566873 -4.896530 -0.211097 0.977142 0.023835 0.498748 0.563336 
-0.709769 0.537229 -4.896530 -0.989380 0.138035 0.045106 0.515846 0.562523 
-0.439481 0.556772 -4.896530 0.086489 0.996246 0.001831 0.481675 0.564484 
-0.161316 0.484464 -4.896530 0.156896 0.987487 -0.014252 0.463162 0.565044 
0.207388 0.427845 -4.896201 0.098575 0.994873 -0.022156 0.439671 0.565286 
0.581100 0.407011 -4.884897 0.092318 0.995514 -0.020600 0.416115 0.565807 
0.879992 0.374822 -4.893788 0.198340 0.980041 -0.011414 0.397216 0.564749 
1.078023 0.320643 -4.896530 0.469344 0.882931 0.010498 0.380135 0.563519 
1.142066 0.270711 -4.896530 0.988403 -0.136204 0.066805 0.363105 0.562609 
1.060235 0.241066 -4.896530 0.303659 -0.952086 0.035859 0.344281 0.564495 
1.142066 0.270711 -4.896530 0.988403 -0.136204 0.066805 0.361323 0.564114 
0.861643 0.202799 -7.202635 0.132847 -0.991119 -0.001526 0.327625 0.426411 
1.071693 0.241066 -7.209309 0.260781 -0.965361 -0.003021 0.345272 0.425567 
1.153525 0.270711 -7.209309 0.987548 -0.156713 -0.011444 0.363105 0.425545 
1.153525 0.270711 -7.209309 0.987548 -0.156713 -0.011444 0.363379 0.424894 
1.089482 0.320643 -7.209309 0.448042 0.893979 -0.005188 0.381166 0.425414 
0.891451 0.374822 -7.206567 0.186010 0.982513 -0.002136 0.398752 0.425812 
0.592559 0.407011 -7.197676 0.081362 0.996673 -0.000916 0.416684 0.426316 
0.218847 0.427845 -7.208981 0.103854 0.994568 -0.001190 0.438933 0.425766 
-0.149857 0.484464 -7.209309 0.190954 0.981567 -0.002625 0.461085 0.425758 
-0.465750 0.556772 -7.209309 0.139714 0.990173 -0.002289 0.480230 0.425744 
-0.680996 0.566874 -7.209309 -0.148991 0.988800 0.003876 0.497786 0.425172 
-0.762827 0.537229 -7.209309 -0.987304 0.156682 0.025208 0.515308 0.424237 
-0.762827 0.537229 -7.209309 -0.987304 0.156682 0.025208 0.209809 0.422837 
-0.698785 0.487296 -7.209309 -0.508194 -0.861141 0.012329 0.227217 0.424393 
-0.498618 0.404883 -7.209309 -0.393597 -0.919248 0.007355 0.244733 0.425140 
-0.192801 0.277683 -7.209309 -0.323344 -0.946257 0.004425 0.264287 0.425389 
0.174692 0.182481 -7.205990 -0.134007 -0.990966 0.001556 0.286765 0.425893 
0.559143 0.176596 -7.185441 0.035493 -0.999359 -0.000397 0.309593 0.427318 
-0.728042 0.445014 -14.991054 -0.464736 -0.845302 -0.263527 0.222156 0.031328 
-0.759587 0.469609 -14.991054 -0.776605 0.133885 -0.615558 0.207986 0.030331 
-0.759587 0.469609 -14.991054 -0.776605 0.133885 -0.615558 0.522218 0.035270 
-0.719280 0.484211 -14.991054 -0.146886 0.953856 -0.261818 0.512152 0.036385 
0.152801 0.362926 -14.991054 0.420118 0.856807 -0.298898 0.420863 0.030881 
0.184346 0.338331 -14.991054 0.740410 -0.124638 -0.660482 0.406356 0.028271 
0.184346 0.338331 -14.991054 0.740410 -0.124638 -0.660482 0.324433 0.033512 
0.144039 0.323728 -14.991054 0.197974 -0.938047 -0.284310 0.313899 0.034555 
0.682410 0.264811 -12.412448 0.252663 -0.965941 -0.055666 0.327142 0.155535 
0.507629 0.230837 -12.402743 0.131504 -0.990509 -0.039705 0.310076 0.155269 
0.751436 0.291085 -12.412826 0.974548 -0.151372 -0.165227 0.344027 0.155781 
0.697247 0.333136 -12.412745 0.434278 0.898556 -0.062929 0.402480 0.155004 
0.751436 0.291085 -12.412826 0.974548 -0.151372 -0.165227 0.385221 0.155416 
0.532401 0.367538 -12.406688 0.162938 0.986419 -0.019166 0.419778 0.154578 
0.279777 0.376002 -12.398425 0.070833 0.997467 -0.003967 0.437082 0.154384 
-0.038408 0.382116 -12.410071 0.112857 0.993591 -0.003998 0.454507 0.153391 
-0.352669 0.445458 -12.412826 0.195685 0.980590 -0.010407 0.471947 0.153227 
-0.620264 0.520233 -12.412826 0.146764 0.989044 -0.013855 0.489172 0.153620 
-0.802602 0.541528 -12.412826 -0.135716 0.990600 -0.015900 0.506152 0.154365 
-0.871921 0.516854 -12.412826 -0.986969 0.160039 -0.015931 0.522923 0.155084 
-0.817670 0.473898 -12.412826 -0.515061 -0.857112 0.002289 0.223660 0.154047 
-0.871921 0.516854 -12.412826 -0.986969 0.160039 -0.015931 0.206618 0.154137 
-0.648107 0.389119 -12.412826 -0.392529 -0.919706 0.001373 0.240886 0.153261 
-0.389048 0.265476 -12.412826 -0.314707 -0.949156 -0.006256 0.258245 0.152987 
-0.074657 0.176221 -12.406054 -0.130009 -0.991272 -0.021058 0.275627 0.153697 
0.250772 0.183722 -12.388957 0.048433 -0.998230 -0.034394 0.292911 0.155279 
0.797518 0.202799 -9.478230 0.144475 -0.989410 -0.013276 0.322114 0.292707 
0.495017 0.176597 -9.461035 0.050600 -0.998688 -0.005005 0.304378 0.293836 
0.110566 0.182481 -9.481585 -0.132328 -0.991180 0.006134 0.284079 0.292880 
-0.256927 0.277683 -9.484903 -0.326365 -0.945128 0.013672 0.263943 0.292449 
-0.562744 0.404883 -9.484903 -0.395642 -0.918271 0.013825 0.245310 0.292051 
-0.762910 0.487296 -9.484903 -0.510453 -0.859767 0.014466 0.228020 0.291435 
-0.826953 0.537229 -9.484903 -0.987152 0.158208 0.020936 0.210750 0.290292 
-0.826953 0.537229 -9.484903 -0.987152 0.158208 0.020936 0.516551 0.290998 
-0.745122 0.566874 -9.484903 -0.141240 0.989959 -0.001434 0.499193 0.291568 
-0.529876 0.556772 -9.484903 0.148839 0.988800 -0.010590 0.481899 0.292035 
-0.213983 0.484464 -9.484903 0.198218 0.980041 -0.014161 0.463487 0.292230 
0.154721 0.427845 -9.484574 0.105167 0.994385 -0.011505 0.443543 0.292289 
0.528433 0.407011 -9.473270 0.068819 0.997589 -0.008484 0.423596 0.292590 
0.827325 0.374822 -9.482162 0.170660 0.985229 -0.012055 0.406001 0.291909 
1.025357 0.320643 -9.484903 0.441237 0.896878 -0.029176 0.388591 0.291732 
1.089399 0.270711 -9.484903 0.985351 -0.154729 -0.071261 0.371195 0.291607 
1.089399 0.270711 -9.484903 0.985351 -0.154729 -0.071261 0.356680 0.292368 
1.007568 0.241066 -9.484903 0.263466 -0.964385 -0.022309 0.339328 0.292136 
-0.000102 1.764077 0.006717 0.000000 1.000000 0.000000 0.719746 0.748977 
-0.212800 1.581312 0.094819 -0.677145 0.680258 0.280465 0.714509 0.747962 
-0.162894 1.581312 0.169509 -0.518265 0.680258 0.518265 0.715228 0.745987 
-0.230325 1.581312 0.006717 -0.732933 0.680258 0.000000 0.714465 0.750055 
-0.212800 1.581312 -0.081386 -0.677145 0.680258 -0.280465 0.715347 0.751948 
-0.162894 1.581312 -0.156075 -0.518265 0.680258 -0.518265 0.716787 0.753452 
-0.088205 1.581312 -0.205981 -0.280465 0.680258 -0.677145 0.718719 0.754302 
-0.000103 1.581312 -0.223506 0.000000 0.680258 -0.732933 0.720826 0.754222 
0.088000 1.581312 -0.205981 0.280465 0.680258 -0.677145 0.722795 0.753470 
0.162689 1.581312 -0.156075 0.518265 0.680258 -0.518265 0.724244 0.751926 
0.212595 1.581312 -0.081386 0.677145 0.680258 -0.280465 0.724963 0.749968 
0.230120 1.581312 0.006717 0.732933 0.680258 0.000000 0.725003 0.747885 
0.212595 1.581312 0.094819 0.677145 0.680258 0.280465 0.724123 0.746008 
0.162689 1.581312 0.169509 0.518265 0.680258 0.518265 0.722691 0.744519 
0.088000 1.581312 0.219415 0.280465 0.680258 0.677145 0.720773 0.743678 
-0.000103 1.581312 0.236939 0.000000 0.680258 0.732933 0.718685 0.743770 
-0.088205 1.581312 0.219414 -0.280465 0.680258 0.677145 0.716747 0.744527 
-0.269140 1.359599 0.275755 -0.616657 0.489303 0.616657 0.709108 0.742030 
-0.145705 1.359599 0.358231 -0.333720 0.489303 0.805719 0.712640 0.738582 
-0.000103 1.359598 0.387193 0.000000 0.489303 0.872097 0.717183 0.736772 
0.145500 1.359598 0.358232 0.333720 0.489303 0.805719 0.722084 0.736529 
0.268935 1.359598 0.275755 0.616657 0.489303 0.616657 0.726597 0.738484 
0.351412 1.359598 0.152319 0.805719 0.489303 0.333720 0.729947 0.741987 
0.380374 1.359598 0.006717 0.872097 0.489303 0.000000 0.731965 0.746370 
0.351412 1.359598 -0.138886 0.805719 0.489303 -0.333720 0.732153 0.751306 
0.268935 1.359598 -0.262321 0.616657 0.489303 -0.616657 0.730384 0.756014 
0.145500 1.359598 -0.344798 0.333720 0.489303 -0.805719 0.726779 0.759440 
-0.000103 1.359599 -0.373760 0.000000 0.489303 -0.872097 0.722257 0.761218 
-0.145705 1.359599 -0.344798 -0.333720 0.489303 -0.805719 0.717371 0.761442 
-0.269140 1.359599 -0.262321 -0.616657 0.489303 -0.616657 0.712854 0.759495 
-0.351617 1.359599 -0.138885 -0.805719 0.489303 -0.333720 0.709459 0.755996 
-0.380579 1.359599 0.006717 -0.872097 0.489303 0.000000 0.707368 0.751569 
-0.351617 1.359599 0.152319 -0.805719 0.489303 0.333720 0.707447 0.746662 
-0.570015 0.839755 0.242782 -0.902829 0.212104 0.373974 0.682741 0.742293 
-0.436295 0.839755 0.442909 -0.691000 0.212104 0.691000 0.688314 0.728839 
-0.616971 0.839755 0.006717 -0.977233 0.212104 0.000000 0.683214 0.756898 
-0.570015 0.839755 -0.229349 -0.902829 0.212104 -0.373974 0.688816 0.770471 
-0.436295 0.839755 -0.429475 -0.691000 0.212104 -0.691000 0.699588 0.780540 
-0.236168 0.839755 -0.563196 -0.373974 0.212104 -0.902829 0.713092 0.785613 
-0.000103 0.839755 -0.610152 0.000000 0.212104 -0.977233 0.727599 0.785666 
0.235963 0.839755 -0.563196 0.373974 0.212104 -0.902829 0.740911 0.779736 
0.436089 0.839755 -0.429476 0.691000 0.212104 -0.691000 0.750768 0.769401 
0.569810 0.839755 -0.229349 0.902829 0.212104 -0.373974 0.756469 0.756246 
0.616766 0.839755 0.006717 0.977233 0.212104 0.000000 0.756707 0.741551 
0.569810 0.839755 0.242782 0.902829 0.212104 0.373974 0.751102 0.727582 
0.436089 0.839755 0.442909 0.691000 0.212104 0.691000 0.740153 0.717245 
0.235963 0.839755 0.576629 0.373943 0.212104 0.902829 0.726407 0.712075 
-0.000103 0.839755 0.623585 0.000000 0.212104 0.977233 0.711654 0.712075 
-0.236168 0.839755 0.576629 -0.373974 0.212104 0.902829 0.698179 0.718229 
-0.236168 0.839755 0.576629 -0.373974 0.212104 0.902829 0.708944 0.712075 
-0.436295 0.839755 0.442909 -0.691000 0.212104 0.691000 0.695227 0.706469 
-0.436295 0.022533 0.442909 -0.495102 -0.713920 0.495102 0.713767 0.682099 
-0.236168 0.022533 0.576629 -0.267953 -0.713920 0.646901 0.716423 0.683552 
-0.000103 0.839755 0.623585 0.000000 0.212104 0.977233 0.723131 0.712075 
-0.000103 0.022533 0.623585 0.000000 -0.713920 0.700186 0.719524 0.683890 
0.235963 0.839755 0.576629 0.373943 0.212104 0.902829 0.736996 0.708685 
0.235963 0.022532 0.576629 0.267953 -0.713920 0.646901 0.722439 0.682764 
0.436089 0.839755 0.442909 0.691000 0.212104 0.691000 0.749156 0.699854 
0.436089 0.022532 0.442909 0.495102 -0.713920 0.495102 0.724643 0.680664 
0.569810 0.839755 0.242782 0.902829 0.212104 0.373974 0.754993 0.685992 
0.569810 0.022532 0.242782 0.646901 -0.713920 0.267953 0.726129 0.677982 
0.616766 0.839755 0.006717 0.977233 0.212104 0.000000 0.757338 0.671053 
0.616766 0.022532 0.006717 0.700186 -0.713920 0.000000 0.726199 0.674905 
0.569810 0.839755 -0.229349 0.902829 0.212104 -0.373974 0.753555 0.655554 
0.569810 0.022532 -0.229349 0.646901 -0.713920 -0.267953 0.725107 0.672120 
0.436089 0.839755 -0.429476 0.691000 0.212104 -0.691000 0.742126 0.644359 
0.436089 0.022533 -0.429476 0.495102 -0.713920 -0.495102 0.723231 0.669796 
0.235963 0.839755 -0.563196 0.373974 0.212104 -0.902829 0.727890 0.638692 
0.235963 0.022533 -0.563196 0.267953 -0.713920 -0.646901 0.720532 0.668340 
-0.000103 0.839755 -0.610152 0.000000 0.212104 -0.977233 0.712533 0.636606 
-0.000103 0.022533 -0.610152 0.000000 -0.713920 -0.700186 0.717490 0.668312 
-0.236168 0.839755 -0.563196 -0.373974 0.212104 -0.902829 0.698277 0.642899 
-0.236168 0.022533 -0.563196 -0.267953 -0.713920 -0.646901 0.714620 0.669185 
-0.436295 0.839755 -0.429475 -0.691000 0.212104 -0.691000 0.687958 0.653753 
-0.436295 0.022533 -0.429475 -0.495102 -0.713920 -0.495102 0.712268 0.671129 
-0.570015 0.839755 -0.229349 -0.902829 0.212104 -0.373974 0.682741 0.667182 
-0.570015 0.022533 -0.229349 -0.646901 -0.713920 -0.267953 0.710816 0.673866 
-0.616971 0.839755 0.006717 -0.977233 0.212104 0.000000 0.682926 0.681039 
-0.616971 0.022533 0.006717 -0.700186 -0.713920 0.000000 0.710507 0.677004 
-0.570015 0.839755 0.242782 -0.902829 0.212104 0.373974 0.686416 0.694602 
-0.570015 0.022533 0.242782 -0.646901 -0.713920 0.267953 0.711661 0.679919 
-0.000103 0.022533 0.006717 0.000000 -1.000000 0.000000 0.718460 0.675970 
-0.946474 -2.350227 0.954403 -0.621509 -0.476852 0.621509 0.809512 0.000000 
-0.946474 -0.577533 0.954402 -0.603168 0.521836 0.603168 0.832406 0.126328 
-1.237002 -0.577533 0.519596 -0.788079 0.521836 0.326426 0.820613 0.131963 
-1.237001 -2.350226 0.519598 -0.812067 -0.476852 0.336344 0.751175 0.024198 
-1.339021 -0.577532 0.006708 -0.853023 0.521836 0.000000 0.811968 0.141620 
-1.339021 -2.350226 0.006709 -0.878964 -0.476852 0.000000 0.706635 0.068900 
-1.237000 -0.577533 -0.506181 -0.788079 0.521836 -0.326426 0.807790 0.153787 
-1.237001 -2.350226 -0.506179 -0.812067 -0.476852 -0.336344 0.682741 0.127235 
-0.946472 -0.577533 -0.940987 -0.603168 0.521836 -0.603168 0.808746 0.166581 
-0.946474 -2.350227 -0.940985 -0.621509 -0.476852 -0.621509 0.683144 0.190184 
-0.511665 -0.577533 -1.231513 -0.326426 0.521836 -0.788079 0.814780 0.178006 
-0.511668 -2.350227 -1.231513 -0.336344 -0.476852 -0.812067 0.707645 0.248035 
0.001224 -0.577533 -1.333533 0.000000 0.521836 -0.853023 0.825087 0.186156 
0.001220 -2.350227 -1.333533 0.000000 -0.476852 -0.878964 0.752212 0.292059 
0.514112 -0.577533 -1.231512 0.326426 0.521836 -0.788079 0.837273 0.191168 
0.514109 -2.350227 -1.231513 0.336344 -0.476852 -0.812067 0.809808 0.316067 
0.948917 -0.577533 -0.940983 0.603168 0.521836 -0.603168 0.850210 0.190836 
0.948914 -2.350227 -0.940985 0.621509 -0.476852 -0.621509 0.872457 0.316562 
1.239444 -0.577533 -0.506176 0.788079 0.521836 -0.326426 0.861836 0.185401 
1.239442 -2.350227 -0.506179 0.812067 -0.476852 -0.336344 0.930722 0.292990 
1.341463 -0.577533 0.006713 0.853023 0.521836 0.000000 0.870394 0.175804 
1.341462 -2.350227 0.006709 0.878964 -0.476852 0.000000 0.975546 0.248714 
1.239442 -0.577533 0.519601 0.788079 0.521836 0.326426 0.874575 0.163546 
1.239442 -2.350227 0.519598 0.812067 -0.476852 0.336344 0.999905 0.190494 
0.948912 -0.577533 0.954406 0.603168 0.521836 0.603168 0.873715 0.150513 
0.948914 -2.350227 0.954403 0.621509 -0.476852 0.621509 1.000000 0.127315 
0.514106 -0.577533 1.244933 0.326426 0.521836 0.788079 0.867908 0.138711 
0.514108 -2.350227 1.244932 0.336344 -0.476852 0.812067 0.975828 0.068902 
0.001217 -0.577533 1.346951 0.000000 0.521836 0.853023 0.858017 0.129962 
0.001220 -2.350227 1.346951 0.000000 -0.476852 0.878964 0.931116 0.024194 
-0.511672 -0.577533 1.244930 -0.326426 0.521836 0.788079 0.845545 0.125616 
-0.511669 -2.350227 1.244931 -0.336344 -0.476852 0.812067 0.872707 0.000000 
-0.946474 -0.577533 0.954402 -0.603168 0.521836 0.603168 0.694816 0.511578 
-0.511672 -0.577533 1.244930 -0.326426 0.521836 0.788079 0.717227 0.489257 
-0.266604 -0.242553 0.653290 -0.326426 0.521836 0.788079 0.740662 0.524113 
-0.493652 -0.242553 0.501581 -0.603168 0.521836 0.603168 0.729427 0.534631 
0.001217 -0.577533 1.346951 0.000000 0.521836 0.853023 0.746350 0.476949 
0.001219 -0.242553 0.706564 0.000000 0.521836 0.853023 0.754655 0.517736 
0.514106 -0.577533 1.244933 0.326426 0.521836 0.788079 0.777899 0.476786 
0.269042 -0.242553 0.653292 0.326426 0.521836 0.788079 0.770033 0.518252 
0.948912 -0.577533 0.954406 0.603168 0.521836 0.603168 0.807402 0.488354 
0.496091 -0.242553 0.501583 0.603168 0.521836 0.603168 0.784238 0.523718 
1.239442 -0.577533 0.519601 0.788079 0.521836 0.326426 0.830561 0.511099 
0.647801 -0.242553 0.274534 0.788079 0.521836 0.326426 0.795572 0.534485 
1.341463 -0.577533 0.006713 0.853023 0.521836 0.000000 0.842756 0.540892 
0.701075 -0.242553 0.006711 0.853023 0.521836 0.000000 0.801021 0.549095 
1.239444 -0.577533 -0.506176 0.788079 0.521836 -0.326426 0.842756 0.573093 
0.647803 -0.242553 -0.261112 0.788079 0.521836 -0.326426 0.801508 0.564683 
0.948917 -0.577533 -0.940983 0.603168 0.521836 -0.603168 0.829923 0.602936 
0.496094 -0.242553 -0.488162 0.603168 0.521836 -0.603168 0.795088 0.578940 
0.514112 -0.577533 -1.231512 0.326426 0.521836 -0.788079 0.806953 0.624831 
0.269045 -0.242553 -0.639872 0.326426 0.521836 -0.788079 0.784000 0.589379 
0.001224 -0.577533 -1.333533 0.000000 0.521836 -0.853023 0.777625 0.636606 
0.001222 -0.242553 -0.693145 0.000000 0.521836 -0.853023 0.769909 0.595710 
-0.511665 -0.577533 -1.231513 -0.326426 0.521836 -0.788079 0.745735 0.636100 
-0.266601 -0.242553 -0.639872 -0.326426 0.521836 -0.788079 0.754425 0.595241 
-0.946472 -0.577533 -0.940987 -0.603168 0.521836 -0.603168 0.717208 0.623656 
-0.493650 -0.242553 -0.488164 -0.603168 0.521836 -0.603168 0.740685 0.589052 
-1.237000 -0.577533 -0.506181 -0.788079 0.521836 -0.326426 0.695197 0.601730 
-0.645360 -0.242553 -0.261114 -0.788079 0.521836 -0.326426 0.729796 0.578665 
-1.339021 -0.577532 0.006708 -0.853023 0.521836 0.000000 0.682741 0.572568 
-0.698634 -0.242553 0.006709 -0.853023 0.521836 0.000000 0.723467 0.564481 
-1.237002 -0.577533 0.519596 -0.788079 0.521836 0.326426 0.682831 0.540891 
-0.645361 -0.242553 0.274532 -0.788079 0.521836 0.326426 0.724021 0.549039 
-0.493652 -0.025242 0.501581 -0.495102 0.713920 0.495102 0.738803 0.540879 
-0.645361 -0.025242 0.274532 -0.646901 0.713920 0.267953 0.734161 0.551041 
-0.698634 -0.025242 0.006709 -0.700186 0.713920 0.000000 0.734622 0.562202 
-0.645360 -0.025242 -0.261114 -0.646901 0.713920 -0.267953 0.738648 0.572643 
-0.493650 -0.025242 -0.488164 -0.495102 0.713920 -0.495102 0.746275 0.580747 
-0.266601 -0.025242 -0.639872 -0.267953 0.713920 -0.646901 0.756658 0.584760 
0.001222 -0.025242 -0.693145 0.000000 0.713920 -0.700186 0.767850 0.584556 
0.269045 -0.025243 -0.639872 0.267953 0.713920 -0.646901 0.778403 0.580812 
0.496094 -0.025243 -0.488162 0.495102 0.713920 -0.495102 0.786166 0.572775 
0.647803 -0.025243 -0.261112 0.646901 0.713920 -0.267953 0.790268 0.562325 
0.701075 -0.025243 0.006711 0.700186 0.713920 0.000000 0.790762 0.551112 
0.647801 -0.025243 0.274534 0.646901 0.713920 0.267953 0.786061 0.540918 
0.496091 -0.025243 0.501583 0.495102 0.713920 0.495102 0.778310 0.532791 
0.269042 -0.025243 0.653292 0.267953 0.713920 0.646901 0.768082 0.528272 
0.001219 -0.025243 0.706564 0.000000 0.713920 0.700186 0.756885 0.528752 
-0.266604 -0.025243 0.653290 -0.267953 0.713920 0.646901 0.746401 0.532672 
0.001221 -0.025242 0.006709 0.000000 1.000000 0.000000 0.762397 0.556702 
-0.511669 -2.350227 1.244931 -0.336344 -0.476852 0.812067 0.694955 0.442019 
-0.946474 -2.350227 0.954403 -0.621509 -0.476852 0.621509 0.682741 0.412516 
-0.681354 -2.597948 0.689283 -0.202887 -0.957945 0.202887 0.708930 0.407386 
-0.368187 -2.597948 0.898535 -0.109806 -0.957945 0.265084 0.716914 0.427379 
0.001220 -2.350227 1.346951 0.000000 -0.476852 0.878964 0.717488 0.464610 
0.001220 -2.597948 0.972015 0.000000 -0.957945 0.286935 0.732299 0.442444 
0.514108 -2.350227 1.244932 0.336344 -0.476852 0.812067 0.746984 0.476786 
0.370627 -2.597948 0.898536 0.109806 -0.957945 0.265084 0.752105 0.450892 
0.948914 -2.350227 0.954403 0.621509 -0.476852 0.621509 0.778925 0.476780 
0.683795 -2.597948 0.689283 0.202887 -0.957945 0.202887 0.773631 0.450613 
1.239442 -2.350227 0.519598 0.812067 -0.476852 0.336344 0.808438 0.464402 
0.893046 -2.597948 0.376116 0.265084 -0.957945 0.109806 0.793555 0.442518 
1.341462 -2.350227 0.006709 0.878964 -0.476852 0.000000 0.830739 0.441913 
0.966526 -2.597948 0.006709 0.286935 -0.957945 0.000000 0.808862 0.427383 
1.239442 -2.350227 -0.506179 0.812067 -0.476852 -0.336344 0.842889 0.412595 
0.893046 -2.597948 -0.362697 0.265084 -0.957945 -0.109806 0.816863 0.407417 
0.948914 -2.350227 -0.940985 0.621509 -0.476852 -0.621509 0.842889 0.380860 
0.683795 -2.597948 -0.675865 0.202887 -0.957945 -0.202887 0.817115 0.385908 
0.514109 -2.350227 -1.231513 0.336344 -0.476852 -0.812067 0.830895 0.351544 
0.370627 -2.597948 -0.885117 0.109806 -0.957945 -0.265084 0.808766 0.366067 
0.001220 -2.350227 -1.333533 0.000000 -0.476852 -0.878964 0.808360 0.328806 
0.001220 -2.597948 -0.958597 0.000000 -0.957945 -0.286935 0.793455 0.350965 
-0.511668 -2.350227 -1.231513 -0.336344 -0.476852 -0.812067 0.778835 0.316576 
-0.368186 -2.597948 -0.885117 -0.109806 -0.957945 -0.265084 0.773674 0.342477 
-0.946474 -2.350227 -0.940985 -0.621509 -0.476852 -0.621509 0.746883 0.316562 
-0.681354 -2.597948 -0.675865 -0.202887 -0.957945 -0.202887 0.752150 0.342734 
-1.237001 -2.350226 -0.506179 -0.812067 -0.476852 -0.336344 0.717372 0.328916 
-0.890606 -2.597947 -0.362697 -0.265084 -0.957945 -0.109806 0.732215 0.350809 
-1.339021 -2.350226 0.006709 -0.878964 -0.476852 0.000000 0.695069 0.351349 
-0.964085 -2.597947 0.006709 -0.286935 -0.957945 0.000000 0.716876 0.365925 
-1.237001 -2.350226 0.519598 -0.812067 -0.476852 0.336344 0.682872 0.380533 
-0.890606 -2.597947 0.376116 -0.265084 -0.957945 0.109806 0.708773 0.385878 
0.001220 -2.597948 0.006709 0.000000 -1.000000 0.000000 0.762886 0.396675 
4 0 1 2 3 
4 1 4 5 2 
4 4 6 7 5 
4 6 8 9 7 
4 8 10 11 9 
4 10 12 13 11 
4 14 15 16 17 
4 15 18 19 16 
4 18 20 21 19 
4 20 22 23 21 
4 22 24 25 23 
4 24 26 27 25 
4 26 28 29 27 
4 28 30 31 29 
4 32 33 34 35 
4 33 0 3 34 
4 34 3 36 37 
4 35 34 37 38 
4 29 31 39 40 
4 27 29 40 41 
4 25 27 41 42 
4 23 25 42 43 
4 21 23 43 44 
4 19 21 44 45 
4 16 19 45 46 
4 17 16 46 47 
4 11 13 48 49 
4 9 11 49 50 
4 7 9 50 51 
4 5 7 51 52 
4 2 5 52 53 
4 3 2 53 36 
4 36 53 54 55 
4 53 52 56 54 
4 52 51 57 56 
4 51 50 58 57 
4 50 49 59 58 
4 49 48 60 59 
4 47 46 61 62 
4 46 45 63 61 
4 45 44 64 63 
4 44 43 65 64 
4 43 42 66 65 
4 42 41 67 66 
4 41 40 68 67 
4 40 39 69 68 
4 38 37 70 71 
4 37 36 55 70 
3 72 70 55 
3 72 71 70 
3 73 68 69 
3 73 67 68 
3 73 61 63 
3 73 62 61 
3 72 59 60 
3 72 58 59 
4 74 1 0 75 
4 76 4 1 74 
4 77 6 4 76 
4 77 78 8 6 
4 79 10 8 78 
4 80 12 10 79 
4 81 15 14 82 
4 83 18 15 81 
4 84 20 18 83 
4 85 22 20 84 
4 86 24 22 85 
4 87 26 24 86 
4 88 28 26 87 
4 89 30 28 88 
4 90 33 32 91 
4 75 0 33 90 
4 92 75 90 93 
4 94 93 90 91 
4 95 89 88 96 
4 96 88 87 97 
4 97 87 86 98 
4 98 86 85 99 
4 99 85 84 100 
4 100 84 83 101 
4 101 83 81 102 
4 103 102 81 82 
4 104 80 79 105 
4 106 105 79 78 
4 107 106 78 77 
4 107 77 76 108 
4 108 76 74 109 
4 92 109 74 75 
4 110 111 109 92 
4 112 108 109 111 
4 113 107 108 112 
4 106 107 113 114 
4 115 105 106 114 
4 104 105 115 116 
4 102 103 117 118 
4 119 101 102 118 
4 100 101 119 120 
4 121 99 100 120 
4 122 98 99 121 
4 97 98 122 123 
4 124 96 97 123 
4 95 96 124 125 
4 93 94 126 127 
4 110 92 93 127 
4 67 73 65 66 
4 65 73 63 64 
4 58 72 56 57 
4 56 72 55 54 
4 111 110 128 129 
4 112 111 129 130 
4 113 112 130 131 
4 114 113 131 132 
4 115 114 132 133 
4 116 115 133 134 
4 118 117 135 136 
4 119 118 136 137 
4 120 119 137 138 
4 121 120 138 139 
4 122 121 139 140 
4 123 122 140 141 
4 124 123 141 142 
4 125 124 142 143 
4 127 126 144 145 
4 110 127 145 128 
4 146 147 148 149 
4 147 150 151 148 
4 152 153 154 155 
4 153 156 157 154 
4 156 158 159 157 
4 158 160 161 159 
4 160 162 163 161 
4 162 164 165 163 
4 164 166 167 165 
4 166 168 169 167 
4 170 171 172 173 
4 171 174 175 172 
4 174 176 177 175 
4 176 178 179 177 
4 178 180 181 179 
4 180 146 149 181 
4 182 183 184 185 
4 186 183 182 187 
4 188 189 190 191 
4 192 189 188 193 
4 146 194 195 147 
4 195 196 150 147 
4 197 198 153 152 
4 153 198 199 156 
4 199 200 158 156 
4 158 200 201 160 
4 160 201 202 162 
4 202 203 164 162 
4 164 203 204 166 
4 204 205 168 166 
4 206 207 171 170 
4 171 207 208 174 
4 208 209 176 174 
4 176 209 210 178 
4 178 210 211 180 
4 146 180 211 194 
4 194 211 212 213 
4 210 214 212 211 
4 209 215 214 210 
4 209 208 216 215 
4 208 207 217 216 
4 206 218 217 207 
4 205 204 219 220 
4 203 221 219 204 
4 202 222 221 203 
4 201 223 222 202 
4 200 224 223 201 
4 199 225 224 200 
4 198 226 225 199 
4 197 227 226 198 
4 196 195 228 229 
4 194 213 228 195 
4 213 230 231 228 
4 228 231 232 229 
4 227 233 234 226 
4 226 234 235 225 
4 225 235 236 224 
4 224 236 237 223 
4 223 237 238 222 
4 222 238 239 221 
4 221 239 240 219 
4 219 240 241 220 
4 218 242 243 217 
4 217 243 244 216 
4 215 216 244 245 
4 215 245 246 214 
4 214 246 247 212 
4 212 247 230 213 
3 183 186 248 
3 183 248 249 
3 189 250 251 
3 189 251 190 
3 189 192 252 
3 189 252 253 
3 183 254 255 
3 183 255 184 
4 256 257 184 255 
4 258 256 255 254 
4 259 260 253 252 
4 261 259 252 192 
4 262 261 192 193 
4 263 262 193 188 
4 264 263 188 191 
4 265 264 191 190 
4 266 265 190 251 
4 267 266 251 250 
4 268 269 249 248 
4 270 268 248 186 
4 271 270 186 187 
4 272 271 187 182 
4 273 272 182 185 
4 257 273 185 184 
4 274 275 273 257 
4 275 276 272 273 
4 276 277 271 272 
4 277 278 270 271 
4 278 279 268 270 
4 279 280 269 268 
4 281 282 266 267 
4 282 283 265 266 
4 283 284 264 265 
4 284 285 263 264 
4 285 286 262 263 
4 286 287 261 262 
4 287 288 259 261 
4 288 289 260 259 
4 290 291 256 258 
4 291 274 257 256 
4 231 230 274 291 
4 232 231 291 290 
4 234 233 289 288 
4 235 234 288 287 
4 236 235 287 286 
4 237 236 286 285 
4 238 237 285 284 
4 239 238 284 283 
4 240 239 283 282 
4 241 240 282 281 
4 243 242 280 279 
4 244 243 279 278 
4 245 244 278 277 
4 246 245 277 276 
4 247 246 276 275 
4 230 247 275 274 
3 292 293 294 
3 292 295 293 
3 292 296 295 
3 292 297 296 
3 292 298 297 
3 292 299 298 
3 292 300 299 
3 292 301 300 
3 292 302 301 
3 292 303 302 
3 292 304 303 
3 292 305 304 
3 292 306 305 
3 292 307 306 
3 292 308 307 
3 292 294 308 
4 308 294 309 310 
4 307 308 310 311 
4 306 307 311 312 
4 305 306 312 313 
4 304 305 313 314 
4 303 304 314 315 
4 302 303 315 316 
4 301 302 316 317 
4 300 301 317 318 
4 299 300 318 319 
4 298 299 319 320 
4 297 298 320 321 
4 296 297 321 322 
4 295 296 322 323 
4 293 295 323 324 
4 294 293 324 309 
4 309 324 325 326 
4 324 323 327 325 
4 323 322 328 327 
4 322 321 329 328 
4 321 320 330 329 
4 320 319 331 330 
4 319 318 332 331 
4 318 317 333 332 
4 317 316 334 333 
4 316 315 335 334 
4 315 314 336 335 
4 314 313 337 336 
4 313 312 338 337 
4 312 311 339 338 
4 311 310 340 339 
4 310 309 326 340 
4 341 342 343 344 
4 345 341 344 346 
4 347 345 346 348 
4 349 347 348 350 
4 351 349 350 352 
4 353 351 352 354 
4 355 353 354 356 
4 357 355 356 358 
4 359 357 358 360 
4 361 359 360 362 
4 363 361 362 364 
4 365 363 364 366 
4 367 365 366 368 
4 369 367 368 370 
4 371 369 370 372 
4 342 371 372 343 
3 373 344 343 
3 373 346 344 
3 373 348 346 
3 373 350 348 
3 373 352 350 
3 373 354 352 
3 373 356 354 
3 373 358 356 
3 373 360 358 
3 373 362 360 
3 373 364 362 
3 373 366 364 
3 373 368 366 
3 373 370 368 
3 373 372 370 
3 373 343 372 
4 374 375 376 377 
4 377 376 378 379 
4 379 378 380 381 
4 381 380 382 383 
4 383 382 384 385 
4 385 384 386 387 
4 387 386 388 389 
4 389 388 390 391 
4 391 390 392 393 
4 393 392 394 395 
4 395 394 396 397 
4 397 396 398 399 
4 399 398 400 401 
4 401 400 402 403 
4 403 402 404 405 
4 405 404 375 374 
4 406 407 408 409 
4 407 410 411 408 
4 410 412 413 411 
4 412 414 415 413 
4 414 416 417 415 
4 416 418 419 417 
4 418 420 421 419 
4 420 422 423 421 
4 422 424 425 423 
4 424 426 427 425 
4 426 428 429 427 
4 428 430 431 429 
4 430 432 433 431 
4 432 434 435 433 
4 434 436 437 435 
4 436 406 409 437 
4 437 409 438 439 
4 435 437 439 440 
4 433 435 440 441 
4 431 433 441 442 
4 429 431 442 443 
4 427 429 443 444 
4 425 427 444 445 
4 423 425 445 446 
4 421 423 446 447 
4 419 421 447 448 
4 417 419 448 449 
4 415 417 449 450 
4 413 415 450 451 
4 411 413 451 452 
4 408 411 452 453 
4 409 408 453 438 
3 454 439 438 
3 454 440 439 
3 454 441 440 
3 454 442 441 
3 454 443 442 
3 454 444 443 
3 454 445 444 
3 454 446 445 
3 454 447 446 
3 454 448 447 
3 454 449 448 
3 454 450 449 
3 454 451 450 
3 454 452 451 
3 454 453 452 
3 454 438 453 
4 455 456 457 458 
4 459 455 458 460 
4 461 459 460 462 
4 463 461 462 464 
4 465 463 464 466 
4 467 465 466 468 
4 469 467 468 470 
4 471 469 470 472 
4 473 471 472 474 
4 475 473 474 476 
4 477 475 476 478 
4 479 477 478 480 
4 481 479 480 482 
4 483 481 482 484 
4 485 483 484 486 
4 456 485 486 457 
3 487 457 486 
3 487 486 484 
3 487 484 482 
3 487 482 480 
3 487 480 478 
3 487 478 476 
3 487 476 474 
3 487 474 472 
3 487 472 470 
3 487 470 468 
3 487 468 466 
3 487 466 464 
3 487 464 462 
3 487 462 460 
3 487 460 458 
3 487 458 457 
